<svg width="49" height="49" viewBox="0 0 49 49" fill="none" xmlns="http://www.w3.org/2000/svg">
<path d="M45.5564 3.44359C42.1082 0.0045166 36.564 0.0045166 25.48 0.0045166H23.52C12.436 0.0045166 6.89174 0.0045166 3.44359 3.44359C0.0045166 6.89174 0.0045166 12.436 0.0045166 23.52V25.48C0.0045166 36.564 0.0045166 42.1082 3.44359 45.5564C6.89174 48.9954 12.436 48.9954 23.52 48.9954H25.48C36.564 48.9954 42.1082 48.9954 45.5564 45.5564C48.9954 42.1082 48.9954 36.564 48.9954 25.48V23.52C48.9954 12.436 48.9954 6.89174 45.5564 3.44359ZM35.1575 35.2981C33.9143 31.419 30.811 28.42 26.705 28.0116V35.2981H26.0743C14.9087 35.2981 8.53868 27.6441 8.271 14.9041H13.8652C14.0466 24.255 18.1708 28.2158 21.4375 29.0325V14.9041H26.705V22.9665C29.9308 22.6216 33.32 18.9466 34.4633 14.9041H39.7308C38.8552 19.8858 35.1802 23.5608 32.5668 25.0716C35.1802 26.2966 39.3633 29.4998 40.9558 35.2981H35.1575Z" fill="white"/>
</svg>
